HIERARCHY
ROOT Hips
{
	OFFSET -3.958830 18.904000 13.208200
	CHANNELS 6 Xposition Yposition Zposition Zrotation Yrotation Xrotation 
	JOINT LHipJoint
	{
		OFFSET 0.000000 0.000000 0.000000
		CHANNELS 3 Zrotation Yrotation Xrotation
		JOINT LeftUpLeg
		{
			OFFSET 1.800000 -1.400000 0.085000
			CHANNELS 3 Zrotation Yrotation Xrotation
			JOINT LeftLeg
			{
				OFFSET 2.215000 -6.000000 0.000000
				CHANNELS 3 Zrotation Yrotation Xrotation
				JOINT LeftFoot
				{
					OFFSET 2.500000 -6.900000 0.000000
					CHANNELS 3 Zrotation Yrotation Xrotation
					JOINT LeftToeBase
					{
						OFFSET 0.200000 -0.500000 1.950000
						CHANNELS 3 Zrotation Yrotation Xrotation
						End Site
						{
							OFFSET 0.000000 0.000000 0.000000
						}
					}
				}
			}
		}
	}
	JOINT RHipJoint
	{
		OFFSET 0.000000 0.000000 0.000000
		CHANNELS 3 Zrotation Yrotation Xrotation
		JOINT RightUpLeg
		{
			OFFSET -1.800000 -1.400000 0.085000
			CHANNELS 3 Zrotation Yrotation Xrotation
			JOINT RightLeg
			{
				OFFSET -2.215000 -6.000000 0.000000
				CHANNELS 3 Zrotation Yrotation Xrotation
				JOINT RightFoot
				{
					OFFSET -2.500000 -6.900000 0.000000
					CHANNELS 3 Zrotation Yrotation Xrotation
					JOINT RightToeBase
					{
						OFFSET -0.200000 -0.500000 1.950000
						CHANNELS 3 Zrotation Yrotation Xrotation
						End Site
						{
							OFFSET 0.000000 0.000000 0.000000
						}
					}
				}
			}
		}
	}
	JOINT LowerBack
	{
		OFFSET 0.000000 0.000000 0.000000
		CHANNELS 3 Zrotation Yrotation Xrotation
		JOINT Spine
		{
			OFFSET -0.087000 1.940000 -0.288900
			CHANNELS 3 Zrotation Yrotation Xrotation
			JOINT Spine1
			{
				OFFSET 0.000000 1.950000 0.060000
				CHANNELS 3 Zrotation Yrotation Xrotation
				JOINT Neck
				{
					OFFSET 0.000000 0.000000 0.000000
					CHANNELS 3 Zrotation Yrotation Xrotation
					JOINT Neck1
					{
						OFFSET 0.000000 1.600000 0.340000
						CHANNELS 3 Zrotation Yrotation Xrotation
						JOINT Head
						{
							OFFSET 0.000000 1.667000 -0.240000
							CHANNELS 3 Zrotation Yrotation Xrotation
							End Site
							{
								OFFSET 0.000000 0.000000 0.000000
							}
						}
					}
				}
				JOINT LeftShoulder
				{
					OFFSET 0.000000 0.000000 0.000000
					CHANNELS 3 Zrotation Yrotation Xrotation
					JOINT LeftArm
					{
						OFFSET 2.700000 1.550000 -0.730000
						CHANNELS 3 Zrotation Yrotation Xrotation
						JOINT LeftForeArm
						{
							OFFSET 5.450000 0.000000 0.000000
							CHANNELS 3 Zrotation Yrotation Xrotation
							JOINT LeftHand
							{
								OFFSET 3.450000 0.000000 0.000000
								CHANNELS 3 Zrotation Yrotation Xrotation
								JOINT LeftHandIndex1
								{
									OFFSET 0.750000 0.000000 0.000000
									CHANNELS 3 Zrotation Yrotation Xrotation
									End Site
									{
										OFFSET 0.000000 0.000000 0.000000
									}
								}
							}
						}
					}
				}
				JOINT RightShoulder
				{
					OFFSET 0.000000 0.000000 0.000000
					CHANNELS 3 Zrotation Yrotation Xrotation
					JOINT RightArm
					{
						OFFSET -2.700000 1.550000 -0.730000
						CHANNELS 3 Zrotation Yrotation Xrotation
						JOINT RightForeArm
						{
							OFFSET -5.450000 0.000000 0.000000
							CHANNELS 3 Zrotation Yrotation Xrotation
							JOINT RightHand
							{
								OFFSET -3.450000 0.000000 0.000000
								CHANNELS 3 Zrotation Yrotation Xrotation
								JOINT RightHandIndex1
								{
									OFFSET -0.750000 0.000000 0.000000
									CHANNELS 3 Zrotation Yrotation Xrotation
									End Site
									{
										OFFSET 0.000000 0.000000 0.000000
									}
								}
							}
						}
					}
				}
			}
		}
	}
}
MOTION
Frames: 9
Frame Time: 0.016667
-1.061260 17.477520 2.232140 -4.340628 19.353923 -15.269503 -15.382712 12.614955 5.123707 26.291979 -5.779809 -27.990380 -20.575083 16.864600 36.645491 -0.417424 10.471620 0.582724 -0.123390 -0.313240 0.130650 18.284497 -10.115419 1.463077 -2.783449 -0.475964 -12.987545 -6.472694 -8.839982 54.044411 -1.147145 -8.190246 1.344621 0.091730 0.570700 0.179160 -3.502488 -3.903915 -8.163949 5.333324 1.290775 23.770413 -1.670927 5.162069 15.649294 -9.423943 -6.273540 -14.097855 -25.720561 16.041840 36.147743 -8.839520 16.034560 -16.944270 5.342613 -28.756075 -2.991017 -11.802108 -47.644140 -2.583464 46.989838 -51.168520 -25.650200 -4.364698 2.073361 0.857280 0.287190 -0.004310 -0.122700 10.425709 26.871308 16.171695 59.632839 -0.863257 -10.020687 9.210248 21.694467 -0.992134 1.889405 -0.837103 -0.753290 0.659000 0.544260 -0.311630 
-0.988560 17.497320 2.234460 -4.316834 19.011068 -14.902065 -15.404129 12.733245 5.133870 25.673594 -6.024051 -28.040693 -20.495482 16.695705 36.610757 -0.382281 10.361400 0.625334 -0.099350 -0.263120 0.139500 18.244169 -10.128592 1.419642 -3.048772 -0.789154 -12.907917 -6.901961 -8.494307 53.171812 -1.117211 -8.011449 1.407035 0.101170 0.550140 0.174450 -3.410917 -4.126029 -8.131973 4.830032 1.264634 23.236435 -1.323915 5.011250 15.161051 -9.324840 -6.404647 -14.237648 -26.809057 16.905379 35.959073 -9.120010 16.528180 -17.090380 5.167439 -28.862198 -3.367583 -14.629903 -49.035495 -0.436318 41.827772 -51.811909 -23.005117 -4.281684 2.110888 0.835730 0.275410 0.017440 -0.106090 10.488944 27.114885 16.515023 59.320188 -1.083337 -9.739938 9.745972 21.507144 -0.937452 1.913293 -0.851709 -0.722280 0.648450 0.508600 -0.292110 
-0.915070 17.523050 2.239910 -4.230810 18.532367 -14.527336 -15.417390 12.846446 5.132871 25.086262 -6.200661 -27.828694 -20.596438 16.516131 36.284008 -0.359177 10.255996 0.662834 -0.073340 -0.216990 0.140110 18.210449 -10.155367 1.371695 -3.404059 -1.085770 -12.668564 -7.294457 -8.110045 51.961593 -1.076179 -7.797931 1.479352 0.114020 0.542240 0.188420 -3.340597 -4.316229 -8.096149 4.431810 1.230426 22.593619 -1.143167 4.870022 14.932123 -9.298045 -6.422649 -14.411855 -27.224061 17.511877 35.661642 -9.063310 16.875850 -17.132450 5.188926 -29.044350 -3.481173 -17.425499 -49.946382 1.442656 36.842359 -52.293896 -20.485436 -4.211190 2.156724 0.812700 0.277170 0.033830 -0.086970 10.459490 27.308801 16.682183 59.263443 -1.123272 -9.505364 9.848571 21.366061 -0.926925 1.918938 -0.875909 -0.689040 0.633830 0.484920 -0.273260 
-0.840150 17.558250 2.244620 -4.478582 17.949436 -14.127005 -15.416392 12.886777 5.143101 24.944667 -6.252838 -27.641713 -20.930713 16.385533 35.689343 -0.335531 10.162151 0.700349 -0.028400 -0.157260 0.162260 18.204836 -10.167685 1.336462 -3.531921 -1.320179 -12.407182 -7.357094 -7.859950 50.530504 -1.038954 -7.563013 1.551178 0.135330 0.527360 0.200570 -3.329894 -4.404046 -8.076929 4.738760 0.986381 21.809815 -1.319776 4.634783 14.739761 -9.055773 -6.511677 -14.603350 -27.375988 17.765270 35.192432 -8.914120 16.938950 -17.092010 4.775765 -29.005821 -3.166322 -20.690722 -50.822727 3.379413 30.879365 -52.505473 -17.341592 -4.090286 2.205098 0.792870 0.271220 0.053170 -0.062270 10.482188 27.244113 16.588076 59.278021 -1.127621 -9.308376 9.686644 21.327956 -0.948149 1.931216 -0.916727 -0.655400 0.615990 0.443280 -0.255870 
-0.769120 17.597500 2.252150 -4.723007 17.396332 -13.416194 -15.429139 12.964155 5.136894 24.624662 -6.262081 -27.631365 -20.887779 16.044820 34.958110 -0.354095 10.007544 0.753667 -0.015810 -0.135530 0.152160 18.181211 -10.163870 1.316203 -3.708728 -1.514521 -12.169686 -6.993789 -7.764427 48.647498 -0.967158 -7.268490 1.648301 0.145640 0.538220 0.208120 -3.274178 -4.561657 -8.060294 4.862320 0.828964 20.698308 -1.316448 4.402382 14.549096 -8.617314 -6.730829 -14.962469 -27.305700 17.838108 34.247953 -8.427300 16.616630 -16.929120 4.159326 -28.641111 -2.220980 -24.280950 -51.812711 5.310315 25.257894 -52.421842 -14.315493 -3.977718 2.220109 0.774110 0.277620 0.050060 -0.049600 10.509711 27.075147 16.328673 59.376517 -1.160603 -9.152976 9.424405 21.170632 -0.964702 1.930493 -0.934737 -0.640350 0.615060 0.437880 -0.239750 
-0.701860 17.655140 2.258130 -5.136836 16.745794 -12.814055 -15.418476 13.042974 5.069902 24.217229 -6.146062 -27.446070 -20.306387 15.464416 34.138831 -0.429660 9.780663 0.833255 -0.027710 -0.144300 0.128510 18.174954 -10.195772 1.321293 -3.838999 -1.687787 -11.583387 -6.257806 -7.739301 46.134936 -0.863664 -6.906566 1.778998 0.155170 0.566420 0.193540 -3.281617 -4.616126 -8.031977 5.554144 0.658886 19.533443 -1.538306 4.250783 14.877289 -7.994048 -7.002007 -15.578733 -27.108677 17.524837 33.332352 -7.969240 15.937160 -16.531690 3.382737 -28.380398 -0.473859 -27.817240 -52.969913 6.706784 21.337081 -51.227802 -12.037925 -3.886711 2.179827 0.765700 0.293450 0.023690 -0.049050 10.380405 26.985696 15.870811 59.647967 -0.996647 -9.136163 9.011630 21.200621 -1.004218 1.913696 -0.936472 -0.659460 0.638460 0.452970 -0.235540 
-0.640840 17.726220 2.262640 -5.481626 15.953136 -11.978478 -15.385720 13.094175 4.963433 23.714937 -5.913762 -27.025544 -19.853059 14.696266 32.543597 -0.525731 9.449910 0.957630 -0.027860 -0.132710 0.108410 18.193378 -10.243290 1.335519 -3.936209 -1.761792 -11.157146 -5.635385 -7.551784 43.462827 -0.763998 -6.518569 1.908627 0.182910 0.605460 0.180140 -3.353646 -4.587738 -7.972146 6.476828 0.471829 18.095719 -2.137467 4.104452 15.396135 -7.492046 -7.335666 -16.181106 -26.481667 16.722207 31.781798 -7.182290 14.741230 -16.327480 2.682562 -28.183437 1.473038 -30.800251 -53.934995 7.753304 17.227481 -48.873464 -9.526967 -3.817522 2.177936 0.750480 0.309380 0.002320 -0.037720 10.406604 26.864351 15.214583 60.105666 -0.574659 -9.031346 8.305226 20.936043 -1.114037 1.903699 -0.939154 -0.679230 0.680030 0.461570 -0.219610 
-0.585030 17.803650 2.267920 -5.800541 15.206358 -10.886403 -15.372178 13.162776 4.835636 23.043937 -5.677539 -26.818852 -19.107736 13.814237 30.890762 -0.640633 9.075530 1.109751 -0.037230 -0.136940 0.084650 18.200047 -10.251734 1.350969 -4.103907 -1.771150 -10.783115 -4.671698 -7.441840 40.502534 -0.651670 -6.110320 2.053355 0.208480 0.661820 0.160310 -3.373110 -4.639197 -7.865043 7.103749 0.270752 16.353746 -2.559162 3.842314 16.016320 -6.873011 -7.779973 -16.695318 -25.650409 15.715703 29.370563 -6.472830 13.285450 -16.077970 1.606718 -27.696680 3.723373 -34.240475 -54.109391 8.369561 14.424713 -46.408475 -8.046836 -3.786462 2.196573 0.734150 0.333010 -0.032810 -0.026290 10.700194 26.615368 14.406889 60.410251 -0.149500 -8.996497 7.321784 20.694624 -1.243994 1.892137 -0.931529 -0.712980 0.736120 0.476160 -0.203560 
-0.538450 17.888080 2.276700 -5.962465 14.275709 -9.778887 -15.374125 13.256264 4.679255 22.333746 -5.315054 -26.149201 -18.573786 12.932255 28.716473 -0.768700 8.681367 1.281739 -0.059670 -0.156040 0.053060 18.190649 -10.234921 1.372828 -4.347081 -1.700105 -10.163504 -3.594223 -7.253298 37.230172 -0.541814 -5.665279 2.222704 0.232410 0.730230 0.120600 -3.337626 -4.746044 -7.715712 7.277952 0.146926 14.612584 -2.789168 3.582473 16.474150 -6.219807 -8.256009 -17.011391 -24.858737 14.606978 26.612347 -5.551480 11.436320 -16.564430 0.164233 -27.285112 5.504388 -38.160047 -52.887979 8.736477 11.478529 -43.791098 -6.841860 -3.794124 2.208700 0.742440 0.344230 -0.065120 -0.013650 11.330463 26.644049 13.881157 60.661463 0.017471 -9.319420 6.346636 21.014328 -1.377311 1.870345 -0.883179 -0.772210 0.833820 0.501940 -0.187420 
